<?xml version="1.0" encoding="UTF-8"?>
<svg version="1.1" xmlns="http://www.w3.org/2000/svg" width="512" height="512">
<path d="M0 0 C2.76565245 0.04762441 5.52749258 0.0410429 8.29345703 0.02783203 C10.0578029 0.03897459 11.82213264 0.05318745 13.58642578 0.07080078 C14.40936127 0.06897797 15.23229675 0.06715515 16.08016968 0.0652771 C19.87023312 0.15932691 21.78008737 0.23075212 24.89160156 2.53857422 C27.98510973 6.98695549 26.94444745 12.51343545 26.37548828 17.67236328 C25.38386321 22.44042718 23.92508751 27.05815487 22.37548828 31.67236328 C23.48408203 31.69814453 24.59267578 31.72392578 25.73486328 31.75048828 C27.19844376 31.80677984 28.6619839 31.86412695 30.12548828 31.92236328 C30.85509766 31.93654297 31.58470703 31.95072266 32.33642578 31.96533203 C35.72889658 32.11953525 38.0136411 32.4324552 40.86767578 34.32470703 C44.08700793 39.33719051 42.99902485 46.41729101 41.91455078 52.07861328 C41.37548828 53.98486328 41.37548828 53.98486328 40.37548828 56.67236328 C41.82181641 56.60275391 41.82181641 56.60275391 43.29736328 56.53173828 C44.56064453 56.49564453 45.82392578 56.45955078 47.12548828 56.42236328 C49.00494141 56.35275391 49.00494141 56.35275391 50.92236328 56.28173828 C54.37548828 56.67236328 54.37548828 56.67236328 56.79345703 58.33251953 C60.21735979 63.39651399 59.06477556 69.89147434 58.01220703 75.66503906 C49.64973288 113.68702752 20.0238582 136.08504175 -10.91503906 155.92919922 C-15.60387225 158.94580302 -20.26925554 161.99829001 -24.93701172 165.04736328 C-26.88095671 166.31569273 -28.82496747 167.58392138 -30.76904297 168.85205078 C-32.22044678 169.79902832 -32.22044678 169.79902832 -33.70117188 170.76513672 C-38.50853153 173.90152336 -43.31655975 177.03688473 -48.12451172 180.17236328 C-49.07519531 180.79240234 -50.02587891 181.41244141 -51.00537109 182.05126953 C-55.75961838 185.15200573 -60.51409239 188.25239317 -65.26904297 191.35205078 C-66.20296875 191.96097168 -67.13689453 192.56989258 -68.09912109 193.19726562 C-69.98953878 194.42968004 -71.8801635 195.66177694 -73.77099609 196.89355469 C-78.96268523 200.27732896 -84.14733418 203.67149451 -89.32373047 207.07861328 C-121.30821601 228.12355487 -150.42917557 244.83391052 -190.36669922 237.74462891 C-202.32912939 235.16029258 -213.87973655 230.62815926 -225.38623047 226.53222656 C-235.17362781 223.05123439 -244.97980469 219.62309615 -254.78185177 216.18361473 C-258.70807681 214.80561879 -262.63326628 213.42472246 -266.55757332 212.04127407 C-269.63283656 210.95743267 -272.70884233 209.8757012 -275.78466797 208.79345703 C-276.91888184 208.39283554 -278.0530957 207.99221405 -279.22167969 207.57945251 C-280.2699292 207.21106766 -281.31817871 206.8426828 -282.39819336 206.46313477 C-283.31443985 206.14021957 -284.23068634 205.81730438 -285.17469788 205.48460388 C-286.38735573 205.08254478 -286.38735573 205.08254478 -287.62451172 204.67236328 C-288.30068542 204.38757111 -288.97685913 204.10277893 -289.67352295 203.80935669 C-291.80480948 203.44644664 -291.80480948 203.44644664 -293.75334167 205.26048279 C-294.89842949 206.46294395 -294.89842949 206.46294395 -296.06665039 207.68969727 C-296.93823288 208.59070663 -297.80981537 209.491716 -298.70780945 210.42002869 C-299.1692655 210.90856764 -299.63072155 211.39710659 -300.10616112 211.90044975 C-301.55344931 213.4300497 -303.01738979 214.94170347 -304.48738098 216.44947815 C-308.66368055 220.73889106 -312.81015739 225.05646721 -316.93920898 229.39135742 C-319.46620791 232.04185121 -322.0150736 234.66966629 -324.57818031 237.28523445 C-325.54812596 238.28427411 -326.50938564 239.29182667 -327.46138573 240.30798149 C-334.88027388 248.2232541 -334.88027388 248.2232541 -339.19326782 249.33377075 C-342.89735491 249.41551375 -345.000047 249.05313445 -348.18701172 247.10986328 C-350.28351019 243.55493109 -350.37253965 241.75251562 -349.62451172 237.67236328 C-344.83348901 230.89617376 -338.2395278 225.14168874 -332.38623047 219.30126953 C-331.41438988 218.32875372 -330.44269764 217.35608964 -329.47114563 216.38328552 C-327.45153784 214.36221524 -325.43016205 212.34293528 -323.4074707 210.32495117 C-320.81375561 207.7369787 -318.22461839 205.14447964 -315.63675213 202.55066013 C-313.63889193 200.5491941 -311.6386659 198.55010619 -309.63770485 196.55174065 C-308.21713627 195.1321625 -306.79857976 193.71057181 -305.38005066 192.28895569 C-304.09279839 191.00643166 -304.09279839 191.00643166 -302.77954102 189.69799805 C-302.0234404 188.94269302 -301.26733978 188.187388 -300.48832703 187.40919495 C-297.90776523 185.00444946 -296.9775168 184.69183427 -293.38285828 184.49356079 C-289.67075784 184.67016313 -286.97739705 185.29944381 -283.4909668 186.53320312 C-282.32056351 186.94138275 -281.15016022 187.34956238 -279.94429016 187.77011108 C-278.67745868 188.22427783 -277.41071204 188.67868128 -276.14404297 189.13330078 C-274.80897888 189.6035256 -273.47357791 190.07279487 -272.13786316 190.54116821 C-268.61227434 191.78038403 -265.09148469 193.03271806 -261.5715332 194.2878418 C-258.09658567 195.52432376 -254.61718793 196.7481346 -251.13818359 197.97314453 C-240.30021479 201.79409606 -229.47251733 205.64320671 -218.66088867 209.53808594 C-217.3839056 209.9972579 -216.106903 210.45637554 -214.82987976 210.91543579 C-212.46556633 211.76630327 -210.10229349 212.62007053 -207.74031067 213.47738647 C-182.93336766 222.40509055 -158.18411058 224.24876196 -133.59326172 213.17626953 C-119.89452183 206.2367763 -107.2596765 197.27375337 -94.45120239 188.84472656 C-89.39592247 185.51878897 -84.32544148 182.21666859 -79.24951172 178.92236328 C-78.44811768 178.4019043 -77.64672363 177.88144531 -76.82104492 177.34521484 C-75.2233891 176.30765396 -73.62565222 175.2702179 -72.02783203 174.23291016 C-67.89237047 171.5476328 -63.75854152 168.85984409 -59.62451172 166.17236328 C-57.95785248 165.08901851 -56.29118583 164.00568517 -54.62451172 162.92236328 C-53.79951172 162.38611328 -52.97451172 161.84986328 -52.12451172 161.29736328 C-44.62451172 156.42236328 -44.62451172 156.42236328 -42.12353516 154.796875 C-40.45994511 153.71544395 -38.79653308 152.633739 -37.13330078 151.55175781 C-32.92099287 148.81202523 -28.70552317 146.07739077 -24.48388672 143.35205078 C-19.51835975 140.14429105 -14.56857875 136.91307291 -9.62451172 133.67236328 C-8.89184082 133.19557129 -8.15916992 132.7187793 -7.40429688 132.22753906 C15.5156654 117.25330347 32.02361062 99.09320705 40.37548828 72.67236328 C27.31552043 72.31747285 18.61662811 73.98362758 7.71826172 81.15625 C4.06182371 83.52249427 0.31188496 85.72824969 -3.4296875 87.95654297 C-6.67308903 89.88880327 -9.90702766 91.83622025 -13.14013672 93.78564453 C-22.17824734 99.21846951 -31.30039371 104.50560148 -40.41699219 109.80517578 C-55.44477505 118.55327163 -70.43824011 127.36120273 -85.40316772 136.21636963 C-87.05381748 137.19303455 -88.70499756 138.16880301 -90.35620117 139.14453125 C-91.38318115 139.75312988 -92.41016113 140.36172852 -93.46826172 140.98876953 C-94.47373047 141.58318848 -95.47919922 142.17760742 -96.51513672 142.79003906 C-98.71853927 144.12391419 -100.88705418 145.47776204 -103.04638672 146.87890625 C-103.61828735 147.24523666 -104.19018799 147.61156708 -104.77941895 147.98899841 C-106.37107988 149.01223161 -107.95415272 150.0487885 -109.53662109 151.08618164 C-117.56968738 155.21259148 -124.99569409 152.93208092 -133.46337891 151.18725586 C-134.86507186 150.90721486 -136.26696375 150.62816806 -137.66903687 150.35003662 C-141.46483827 149.59389935 -145.25756602 148.8232887 -149.04981136 148.0495398 C-153.03102416 147.23931316 -157.01461112 146.44091841 -160.99786377 145.64079285 C-167.69082587 144.29442813 -174.38184753 142.93873915 -181.07177734 141.57739258 C-188.78267482 140.00839628 -196.49633996 138.45365697 -204.21169162 136.9067238 C-211.65582945 135.41386024 -219.09796338 133.91122995 -226.53922272 132.40408897 C-229.69461072 131.76514981 -232.85063268 131.12949203 -236.00722504 130.49653053 C-239.73530623 129.74848093 -243.46153804 128.99179827 -247.18657303 128.22872925 C-248.54558386 127.95171222 -249.90517389 127.67751747 -251.26539993 127.40653038 C-275.04762642 122.66196466 -275.04762642 122.66196466 -281.62451172 113.67236328 C-286.11151642 106.84837697 -286.72207553 99.66612452 -285.62451172 91.67236328 C-283.39947305 84.30000012 -279.00452405 78.92570483 -272.62451172 74.67236328 C-269.04436962 73.00434381 -266.23915941 72.42112937 -262.300354 72.41407776 C-261.24630371 72.40724976 -260.19225342 72.40042175 -259.10626221 72.39338684 C-257.3871463 72.39721626 -257.3871463 72.39721626 -255.63330078 72.40112305 C-254.41807739 72.3958963 -253.202854 72.39066956 -251.95080566 72.38528442 C-249.31253578 72.37504511 -246.67452605 72.36832661 -244.03626251 72.36740303 C-239.85790253 72.36545684 -235.67970718 72.34737231 -231.50140381 72.3266449 C-221.12093633 72.27752593 -210.74042412 72.24661747 -200.35986328 72.2253418 C-192.29519984 72.20878571 -184.2306778 72.18587259 -176.16610885 72.14232105 C-172.01970705 72.12063723 -167.87357446 72.11247819 -163.72711992 72.11471379 C-160.52912259 72.11264326 -157.33124039 72.09125859 -154.13330078 72.07299805 C-152.42633026 72.07986382 -152.42633026 72.07986382 -150.68487549 72.08686829 C-144.29641692 72.02901319 -138.41660808 71.58750495 -132.62451172 68.67236328 C-128.03302283 63.96608717 -127.26951991 60.60321604 -127.34326172 54.21533203 C-127.75632416 50.4805591 -129.13325504 48.43294501 -131.62451172 45.67236328 C-137.06873558 41.62409426 -142.36059996 41.54713485 -148.97853088 41.53865051 C-149.70937564 41.53638496 -150.4402204 41.5341194 -151.19321197 41.53178519 C-153.63720631 41.52546552 -156.08114489 41.52627326 -158.52514648 41.52709961 C-160.27979097 41.52410673 -162.0344348 41.5207039 -163.78907776 41.516922 C-168.55390178 41.50808795 -173.31870783 41.50574405 -178.08353925 41.50510621 C-181.06382703 41.50439503 -184.04411025 41.50225935 -187.0243969 41.49960899 C-197.43187626 41.49035546 -207.83934283 41.48627386 -218.24682617 41.48706055 C-227.93004575 41.48766039 -237.61320946 41.47712691 -247.29641491 41.46131688 C-255.62190244 41.44821079 -263.94737178 41.44287798 -272.27286953 41.44351596 C-277.2397034 41.44377017 -282.20648768 41.44096183 -287.17331123 41.43033791 C-291.85104734 41.42060596 -296.52868697 41.42061247 -301.20642662 41.42785454 C-302.91554023 41.42889428 -304.62466001 41.42657412 -306.33376312 41.42049408 C-329.33741367 41.34401577 -341.61420922 45.78774376 -358.07849121 62.01281738 C-359.59575468 63.53022648 -361.11033673 65.05032038 -362.62255859 66.57275391 C-363.45961334 67.41126892 -364.29666809 68.24978394 -365.15908813 69.1137085 C-366.95636109 70.91475606 -368.75247915 72.71695673 -370.54753113 74.5202179 C-373.38609504 77.37164064 -376.22778205 80.21991584 -379.07043457 83.06726074 C-385.09145943 89.0993065 -391.10818829 95.1356289 -397.12451172 101.17236328 C-403.64961259 107.71952743 -410.17548264 114.26591508 -416.70620394 120.80747366 C-419.06963515 123.17506989 -421.43196864 125.54374112 -423.79185486 127.91487122 C-426.41291399 130.54782462 -429.03693792 133.1777889 -431.66162109 135.80712891 C-432.83351486 136.98677216 -432.83351486 136.98677216 -434.02908325 138.19024658 C-435.09695572 139.25822479 -435.09695572 139.25822479 -436.18640137 140.34777832 C-437.11544407 141.28015194 -437.11544407 141.28015194 -438.06325531 142.23136139 C-441.01547998 144.95619333 -443.68457923 145.02116193 -447.64794922 144.94189453 C-449.62451172 144.67236328 -449.62451172 144.67236328 -452.12451172 143.17236328 C-453.81747036 140.35076555 -454.37457174 138.09519408 -454.19851589 134.79462433 C-453.49520343 132.19427278 -452.44665884 130.94517282 -450.62794495 128.96618652 C-449.99068041 128.26968491 -449.35341587 127.57318329 -448.69684029 126.85557556 C-445.13350568 123.10157825 -441.52843446 119.3946291 -437.88208008 115.72119141 C-437.03547821 114.86480576 -436.18887634 114.0084201 -435.31661987 113.12608337 C-432.5356986 110.31544101 -429.75085986 107.50871774 -426.96435547 104.70361328 C-426.48714782 104.22310831 -426.00994017 103.74260334 -425.51827168 103.24753761 C-421.00265689 98.70116886 -416.48498837 94.15684984 -411.96248531 89.61733246 C-406.22028694 83.85325876 -400.48837248 78.07936915 -394.77012342 72.29153299 C-390.7243809 68.19827072 -386.66694738 64.11682452 -382.60099131 60.04364157 C-380.18411609 57.62185479 -377.7723743 55.19546571 -375.37321281 52.75611877 C-359.03136834 36.17566628 -345.50968587 24.48349041 -321.32626683 24.26188505 C-318.63971145 24.25439466 -315.95339909 24.26117091 -313.2668457 24.26831055 C-311.32087819 24.26260018 -309.37491403 24.25563335 -307.42895508 24.24751282 C-302.17078953 24.22964304 -296.91279141 24.23073777 -291.65460467 24.2364552 C-287.25595219 24.23955506 -282.8573315 24.23344597 -278.45868355 24.22741646 C-268.07976905 24.21339404 -257.70093691 24.21491437 -247.32202148 24.22631836 C-236.63086763 24.23780613 -225.93996445 24.22370753 -215.24884361 24.19692189 C-206.05107151 24.17474442 -196.85337799 24.16813187 -187.65558106 24.1739983 C-182.17018726 24.17736309 -176.68495424 24.17498405 -171.19958305 24.15774727 C-166.0423431 24.1422469 -160.88547406 24.14626808 -155.7282486 24.16505241 C-153.84091066 24.16872926 -151.95354505 24.16565632 -150.06623268 24.15516663 C-138.00903955 24.09329161 -127.47451705 24.26587246 -118.15576172 32.96923828 C-110.76209881 41.19280213 -109.04261105 49.90681963 -109.31201172 60.68408203 C-109.78633807 69.06977659 -113.39920695 76.07530028 -119.62451172 81.67236328 C-128.01070717 87.97878226 -135.49157182 88.96827752 -145.79272461 88.95947266 C-147.62541649 88.96972221 -147.62541649 88.96972221 -149.49513245 88.98017883 C-152.14375851 88.99375221 -154.79212117 89.0038049 -157.44075203 89.00788879 C-161.63069758 89.01462402 -165.82048353 89.03640242 -170.01036072 89.0604248 C-179.65861879 89.11346264 -189.30692598 89.14691942 -198.95526886 89.18018341 C-207.80354492 89.21088684 -216.65175218 89.24574076 -225.49993891 89.29649401 C-229.66328856 89.3198089 -233.82652656 89.33357488 -237.98993504 89.33998871 C-241.18856033 89.34732931 -244.38711246 89.36733975 -247.58569336 89.38525391 C-248.73648376 89.384272 -249.88727417 89.3832901 -251.07293701 89.38227844 C-252.13132278 89.39055161 -253.18970856 89.39882477 -254.28016663 89.40734863 C-255.19693208 89.41028175 -256.11369753 89.41321487 -257.05824375 89.41623688 C-260.83753979 89.79342956 -263.67036975 90.81363551 -266.49951172 93.35986328 C-268.16034927 96.77380713 -267.54403879 99.05993551 -266.62451172 102.67236328 C-260.41941788 110.72288618 -239.10949935 111.24867055 -229.63232422 113.12939453 C-227.47926829 113.55888257 -225.32626433 113.98863122 -223.17330933 114.41862488 C-217.5137115 115.5482639 -211.85343174 116.67444819 -206.19299316 117.79986572 C-199.42254522 119.146683 -192.65292568 120.4976577 -185.88323593 121.84827995 C-180.43471743 122.93506589 -174.98586666 124.02012071 -169.53619385 125.10110474 C-160.32285283 126.92968851 -151.11247686 128.76742539 -141.91650391 130.68164062 C-140.49482203 130.97526858 -139.07310136 131.26870876 -137.65133667 131.56193542 C-135.14159231 132.08167825 -132.63338921 132.60895271 -130.12722778 133.14570618 C-129.05495941 133.3667955 -127.98269104 133.58788483 -126.87792969 133.81567383 C-125.97267548 134.00743698 -125.06742126 134.19920013 -124.13473511 134.39677429 C-119.54768477 134.90037113 -116.21821921 133.67888215 -112.34326172 131.32861328 C-111.51632812 130.83296875 -110.68939453 130.33732422 -109.83740234 129.82666016 C-108.94214844 129.28074219 -108.04689453 128.73482422 -107.12451172 128.17236328 C-105.14581803 126.98407533 -103.16662526 125.79661817 -101.18701172 124.60986328 C-100.12869141 123.97306641 -99.07037109 123.33626953 -97.97998047 122.68017578 C-92.66996921 119.50282329 -87.32708097 116.38213933 -81.98461914 113.25976562 C-78.87371473 111.44115843 -75.76463272 109.61944381 -72.65576172 107.79736328 C-72.05131226 107.44311279 -71.44686279 107.0888623 -70.82409668 106.72387695 C-64.53955416 103.03896447 -58.26935617 99.32997285 -52.00024414 95.61889648 C-43.88264945 90.81705378 -35.74388771 86.05159067 -27.6043396 81.28710938 C-17.02213468 75.09164975 -6.46643658 68.85231195 4.07348633 62.58520508 C5.13607666 61.95396729 6.19866699 61.32272949 7.29345703 60.67236328 C8.22955811 60.11548828 9.16565918 59.55861328 10.13012695 58.98486328 C14.553475 56.39924633 17.26639704 56.58995858 22.37548828 56.67236328 C23.03548828 54.03236328 23.69548828 51.39236328 24.37548828 48.67236328 C6.53081073 46.51677957 -6.04359963 55.37197459 -20.40185547 64.60205078 C-23.33777165 66.48815451 -26.28168111 68.35498668 -29.25341797 70.18408203 C-30.01082275 70.65418701 -30.76822754 71.12429199 -31.54858398 71.60864258 C-34.75774867 73.25304227 -37.12467825 73.37232997 -40.62451172 72.67236328 C-43.95086936 70.4839701 -44.53036294 69.0489584 -45.49951172 65.17236328 C-45.62981748 61.52380198 -45.65150307 60.57013358 -43.62451172 57.67236328 C-41.36339367 56.09038872 -39.16707065 54.69996308 -36.78076172 53.33642578 C-36.09703491 52.93459076 -35.41330811 52.53275574 -34.7088623 52.1187439 C-32.51969297 50.83504821 -30.32243996 49.56599204 -28.12451172 48.29736328 C-26.67602686 47.45198191 -25.22810382 46.60563714 -23.78076172 45.75830078 C-20.99211932 44.12642267 -18.19911795 42.50239464 -15.40332031 40.8828125 C-11.41381249 38.56382452 -7.48725405 36.14754368 -3.5859375 33.68310547 C-0.87238441 32.28478461 1.39033471 32.20102324 4.37548828 32.67236328 C4.47861328 31.70298828 4.58173828 30.73361328 4.68798828 29.73486328 C5.11671426 26.65376306 5.90920474 23.85962926 6.91845703 20.91845703 C7.19069092 20.11980225 7.4629248 19.32114746 7.7434082 18.49829102 C7.95199463 17.89573486 8.16058105 17.29317871 8.37548828 16.67236328 C-9.46918927 14.51677957 -22.04359963 23.37197459 -36.40185547 32.60205078 C-39.33777165 34.48815451 -42.28168111 36.35498668 -45.25341797 38.18408203 C-46.01082275 38.65418701 -46.76822754 39.12429199 -47.54858398 39.60864258 C-50.75774867 41.25304227 -53.12467825 41.37232997 -56.62451172 40.67236328 C-59.95086936 38.4839701 -60.53036294 37.0489584 -61.49951172 33.17236328 C-61.62981748 29.52380198 -61.65150307 28.57013358 -59.62451172 25.67236328 C-57.36339367 24.09038872 -55.16707065 22.69996308 -52.78076172 21.33642578 C-52.09703491 20.93459076 -51.41330811 20.53275574 -50.7088623 20.1187439 C-48.51969297 18.83504821 -46.32243996 17.56599204 -44.12451172 16.29736328 C-41.96371962 15.03625698 -39.80463102 13.77229487 -37.64633179 12.50692749 C-36.23521805 11.68449874 -34.81999739 10.86907678 -33.40078735 10.06069946 C-30.49912028 8.40251201 -27.7531117 6.76918947 -25.07910156 4.75585938 C-17.51838564 -0.86920648 -9.04114538 -0.1670382 0 0 Z " fill="#fff" transform="translate(453.62451171875,263.32763671875)"/>
<path d="M0 0 C2.70233772 0.69848268 5.20118448 1.44241066 7.8125 2.37890625 C8.53561371 2.6265271 9.25872742 2.87414795 10.00375366 3.12927246 C11.54402385 3.65762395 13.08252211 4.19116564 14.61932373 4.72952271 C18.64584937 6.13836795 22.68678235 7.50472536 26.7265625 8.875 C27.5255899 9.14699722 28.32461731 9.41899445 29.14785767 9.69923401 C46.1826258 15.47648906 63.63236735 21.21773059 81.63232422 22.65576172 C105.06210218 24.52864231 124.50160058 33.19863648 140.0859375 51.4765625 C153 68.50204082 153 68.50204082 153 77 C153.66 77 154.32 77 155 77 C155.2578125 76.27296875 155.515625 75.5459375 155.78125 74.796875 C163.74714013 56.51617842 183.44370265 47.25399273 200.84692383 40.36914062 C219.66941408 33.17261224 243.94021056 25.28507048 264 32 C266.5 33.1875 266.5 33.1875 268 35 C269.70805282 41.66779978 268.14472463 47.54679408 266.8125 54.1875 C263.9544991 69.29152352 262.6361653 84.44655862 261.52075195 99.76831055 C260.42793594 114.03070604 258.3327685 125.64673522 249 137 C248.42636719 137.69867188 247.85273438 138.39734375 247.26171875 139.1171875 C235.46757808 152.09831877 216.23105479 158.90558224 199.1237793 160.22119141 C196.22548877 160.33675911 193.33797662 160.37110413 190.4375 160.375 C189.47392578 160.39949219 188.51035156 160.42398438 187.51757812 160.44921875 C176.16554956 160.49514739 167.59381408 156.18678852 159.41796875 148.515625 C154.39821123 143.16474891 151.29661512 136.48594394 148 130 C147.52691406 130.68964844 147.05382812 131.37929687 146.56640625 132.08984375 C133.56345601 150.5677204 133.56345601 150.5677204 124.34960938 152.57836914 C123.35767578 152.72910889 122.36574219 152.87984863 121.34375 153.03515625 C120.23773438 153.20466797 119.13171875 153.37417969 117.9921875 153.54882812 C116.83976563 153.71833984 115.68734375 153.88785156 114.5 154.0625 C113.37851562 154.23587891 112.25703125 154.40925781 111.1015625 154.58789062 C80.80842734 159.15284921 52.15061251 156.97247109 26.76098633 138.26757812 C3.41487472 120.43838806 -7.35665832 93.2596075 -12 65 C-12.17571533 63.96069336 -12.17571533 63.96069336 -12.35498047 62.90039062 C-14.02323091 52.53889459 -14.19618092 42.1674841 -14.25 31.6875 C-14.2593457 30.43606201 -14.26869141 29.18462402 -14.27832031 27.89526367 C-14.20761229 7.30970975 -14.20761229 7.30970975 -10.42285156 1.63549805 C-6.99161333 -0.68069149 -3.95718751 -0.53326264 0 0 Z M3 20 C2.42253791 52.92866511 4.6612537 91.55865742 28.75195312 116.82202148 C35.4814649 123.62552146 42.03038423 128.86808652 50.75 132.8125 C51.35674561 133.0906958 51.96349121 133.3688916 52.58862305 133.65551758 C63.72184337 138.36258291 75.25461797 139.48341983 87.19091797 139.33618164 C89.29041353 139.3120352 91.38867713 139.31572103 93.48828125 139.32226562 C100.33124189 139.83137177 100.33124189 139.83137177 106 137 C105.35933594 136.29875 104.71867187 135.5975 104.05859375 134.875 C96.1289557 126.17721519 96.1289557 126.17721519 92.5 122 C89.71185902 118.79100756 86.86471815 115.64083556 84 112.5 C80.56735239 108.73649479 77.1844499 104.93870649 73.84375 101.09375 C71.59123543 98.53580973 69.29682908 96.0182102 67 93.5 C63.55222191 89.71940471 60.14630336 85.91076102 56.796875 82.04296875 C53.89423954 78.74279843 50.90258255 75.52292916 47.91796875 72.296875 C44.99836692 68.80048829 43.96334461 67.04467861 44.125 62.4375 C45 59 45 59 46.625 57 C50.16810999 55.50816421 52.33011162 55.96985589 56 57 C58.5 59.125 58.5 59.125 61 62 C62.11867782 63.11057146 63.24415323 64.21432214 64.375 65.3125 C67.39003632 68.32753632 70.20110357 71.47087464 72.984375 74.69921875 C75.44480269 77.5077302 77.96974992 80.25461879 80.5 83 C84.10032448 86.90963279 87.64418014 90.85866939 91.125 94.875 C93.54550075 97.61823418 96.02200642 100.30884568 98.5 103 C101.53888018 106.30028923 104.56156045 109.60949283 107.5 113 C110.52704522 116.48991864 113.62942906 119.90638662 116.75 123.3125 C117.45866211 124.0869043 117.45866211 124.0869043 118.18164062 124.87695312 C120.40788399 127.30066013 122.6453185 129.70026107 125 132 C134.69560665 121.8426978 139.45680251 109.75909003 139.43383789 95.76904297 C139.05319971 81.03945091 132.27248507 68.31252389 122.25 57.75 C109.82890147 45.96396516 96.27492597 41.40251516 79.625 39.5625 C57.96541981 37.14289868 37.66117059 30.82400899 17.06176758 23.96313477 C16.27739319 23.70229599 15.4930188 23.44145721 14.68487549 23.17271423 C13.19867616 22.67704528 11.71347727 22.17836373 10.22943115 21.67628479 C6.69247547 20.42860476 6.69247547 20.42860476 3 20 Z M229.5 49.5625 C228.64978271 49.73740967 227.79956543 49.91231934 226.92358398 50.0925293 C206.396259 54.58661013 183.28783737 63.27861544 171.4609375 81.57421875 C170.73777344 82.77498047 170.73777344 82.77498047 170 84 C169.60039062 84.64582031 169.20078125 85.29164062 168.7890625 85.95703125 C162.04679782 97.99678961 161.76591434 111.22047535 165.05078125 124.23828125 C166.04016597 127.11686147 167.3445668 129.45424979 169 132 C173.30746805 127.97017722 176.65929987 123.55567165 180.0625 118.75 C180.62396729 117.96512207 181.18543457 117.18024414 181.76391602 116.37158203 C186.16119547 110.21428271 190.5266058 104.03356248 194.86547852 97.83496094 C197.77011066 93.69502547 200.76828258 89.65342636 203.88305664 85.66845703 C205.18543287 84.05764128 205.18543287 84.05764128 205 82 C206.41433206 81.7763663 207.83167618 81.57173524 209.25 81.375 C210.03890625 81.25898437 210.8278125 81.14296875 211.640625 81.0234375 C214.3606779 80.99641711 215.73485839 81.52665568 218 83 C219.60766789 86.21533577 219.38388744 88.42060506 219 92 C217.41609131 95.22116535 215.36301969 98.04363982 213.25 100.9375 C212.66307373 101.76725342 212.07614746 102.59700684 211.47143555 103.4519043 C206.72750514 110.11734618 201.82266017 116.66554871 196.87890625 123.18359375 C193.95434298 127.04624323 191.08507304 130.94626046 188.25 134.875 C187.60381714 135.75925659 187.60381714 135.75925659 186.94458008 136.66137695 C184.69381255 139.54071514 184.69381255 139.54071514 184 143 C196.20406777 146.27657851 213.01220884 141.40120505 223.7578125 135.48046875 C225.92112405 134.07038944 227.96387265 132.58612984 230 131 C230.886875 130.401875 231.77375 129.80375 232.6875 129.1875 C239.87151955 122.39180583 243.01046847 114.53549352 243.7109375 104.77734375 C243.82037995 103.35000272 243.93000686 101.92267582 244.03979492 100.49536133 C244.09428802 99.75138092 244.14878113 99.00740051 244.20492554 98.24087524 C245.4501944 81.3757832 247.46355465 64.72038729 250 48 C242.96645865 47.81355481 236.39081427 48.12823519 229.5 49.5625 Z " fill="#fff" transform="translate(156,0)"/>
<path d="M0 0 C1.57539551 0.01135986 1.57539551 0.01135986 3.18261719 0.02294922 C11.45591602 0.19780913 18.4833133 1.25230653 26.1875 4.4375 C27.20585937 4.85 28.22421875 5.2625 29.2734375 5.6875 C39.2675863 10.20927426 51.30420288 18.21950854 56.1875 28.4375 C57.1021409 32.4009439 56.82259158 35.37901404 54.6875 38.9375 C51.20169129 41.02898522 48.08754684 41.31993484 44.1875 40.4375 C41.8125 38.5 41.8125 38.5 40.63671875 37.125 C32.38975116 27.522062 20.85214979 19.48405825 7.95092773 18.21801758 C-8.5488557 17.41744829 -22.17208775 19.98375082 -34.9140625 31.3046875 C-37.35762532 33.72745404 -39.60811354 36.18036865 -41.75 38.875 C-44.49815323 40.95693427 -46.51803218 41.01478166 -49.90625 40.8125 C-51.8125 40.4375 -51.8125 40.4375 -54.3125 38.9375 C-55.96260908 36.1873182 -56.68836888 34.00930293 -56.5078125 30.77734375 C-53.70595835 21.34863232 -43.85676284 14.28959504 -35.8125 9.4375 C-24.20965691 3.2115842 -13.18321718 -0.13417491 0 0 Z " fill="#fff" transform="translate(247.8125,239.5625)"/>
<path d="M0 0 C0.66 -0.0103125 1.32 -0.020625 2 -0.03125 C5.03119371 0.77391083 6.0938408 2.00546283 8 4.5 C8.39455787 7.4478527 8.54732315 10.02177283 8.51757812 12.96875 C8.5245874 13.82122314 8.53159668 14.67369629 8.53881836 15.55200195 C8.55641568 18.3683332 8.5447696 21.18365864 8.53125 24 C8.53394442 25.95768425 8.53782642 27.9153672 8.54284668 29.87304688 C8.54874408 33.97539007 8.54017093 38.07738482 8.52148438 42.1796875 C8.49869475 47.43920628 8.51181653 52.69790864 8.53577423 57.95739746 C8.55022563 61.9997371 8.54562923 66.04188305 8.53526306 70.08422852 C8.53259396 72.02351986 8.53587197 73.96282877 8.54518127 75.90209961 C8.55533602 78.6122905 8.53986128 81.32115775 8.51757812 84.03125 C8.52567505 84.83344971 8.53377197 85.63564941 8.54211426 86.4621582 C8.48724701 90.06262563 8.31076947 92.0933047 6.09265137 94.99609375 C3.82522778 96.62560192 2.76035207 97.0431305 0 97 C-0.66 97.0103125 -1.32 97.020625 -2 97.03125 C-5.03119371 96.22608917 -6.0938408 94.99453717 -8 92.5 C-8.39455787 89.5521473 -8.54732315 86.97822717 -8.51757812 84.03125 C-8.5245874 83.17877686 -8.53159668 82.32630371 -8.53881836 81.44799805 C-8.55641568 78.6316668 -8.5447696 75.81634136 -8.53125 73 C-8.53394442 71.04231575 -8.53782642 69.0846328 -8.54284668 67.12695312 C-8.54874408 63.02460993 -8.54017093 58.92261518 -8.52148438 54.8203125 C-8.49869475 49.56079372 -8.51181653 44.30209136 -8.53577423 39.04260254 C-8.55022563 35.0002629 -8.54562923 30.95811695 -8.53526306 26.91577148 C-8.53259396 24.97648014 -8.53587197 23.03717123 -8.54518127 21.09790039 C-8.55533602 18.3877095 -8.53986128 15.67884225 -8.51757812 12.96875 C-8.52567505 12.16655029 -8.53377197 11.36435059 -8.54211426 10.5378418 C-8.48724701 6.93737437 -8.31076947 4.9066953 -6.09265137 2.00390625 C-3.82522778 0.37439808 -2.76035207 -0.0431305 0 0 Z " fill="#fff" transform="translate(304,151.5)"/>
<path d="M0 0 C4.23193976 0.90105894 8.044944 2.25737174 12 4 C13.36898438 4.60134766 13.36898438 4.60134766 14.765625 5.21484375 C27.85449355 11.66578611 38.48822574 22.97645148 45 36 C45.56872038 43.0521327 45.56872038 43.0521327 43.5 46.5 C40.01036409 48.59378155 36.90284814 48.87598996 33 48 C29.51744474 45.42954254 27.50145999 42.27320744 25.1875 38.6875 C18.49565256 28.46290061 9.04601058 20.95004341 -3 18 C-6.06338526 17.56059697 -9.12234203 17.12531787 -12.1953125 16.7578125 C-15.5648593 15.84737785 -16.89443425 14.75799457 -19 12 C-19.53125 10 -19.53125 10 -19.5 8 C-19.51546875 7.01 -19.51546875 7.01 -19.53125 6 C-17.19528403 -2.79422485 -7.03886813 -0.68162952 0 0 Z " fill="#fff" transform="translate(331,256)"/>
<path d="M0 0 C8.58082608 2.16037771 14.97005004 6.62370994 19.8125 14 C23.789276 20.95935801 25.31829113 27.97853361 24 36 C22.15902197 38.42490058 20.96584011 39.74344872 18 40.53125 C17.34 40.5209375 16.68 40.510625 16 40.5 C15.01 40.51546875 15.01 40.51546875 14 40.53125 C11.06701618 39.75217617 9.87715995 38.35042697 8 36 C7.09375 33.37890625 7.09375 33.37890625 6.5 30.5625 C4.99064348 24.58605329 4.99064348 24.58605329 1 20 C-1.1963508 19.07028258 -3.38690778 18.35323111 -5.67578125 17.68359375 C-8.9477828 16.72124035 -11.92391718 15.47395635 -15 14 C-16.56471233 10.87057535 -16.69701958 7.38917777 -16 4 C-11.75697978 -1.66398484 -6.49544343 -0.78489945 0 0 Z " fill="#fff" transform="translate(372,308)"/>
</svg>
